# AST/ASF file generated using VICON BodyLanguage
# -----------------------------------------------
:version 1.10
:name VICON
:units
  mass 1.0
  length 0.45
  angle deg
:documentation
   .ast/.asf automatically generated from VICON data using
   VICON BodyBuilder and BodyLanguage model FoxedUp or BRILLIANT.MOD
:root
   order TX TY TZ RX RY RZ
   axis XYZ
   position 0 0 0  
   orientation 0 0 0 
:bonedata
  begin
     id 1 
     name lhipjoint
     direction 0.612567 -0.751349 0.245431 
     length 2.42285 
     axis 0 0 0  XYZ
  end
  begin
     id 2 
     name lfemur
     direction 0.34202 -0.939693 0  
     length 7.11304  
     axis 0 0 20  XYZ
    dof rx ry rz
    limits (-160.0 20.0)
           (-70.0 70.0)
           (-60.0 70.0)
  end
  begin
     id 3 
     name ltibia
     direction 0.34202 -0.939693 0   
     length 7.84529   
     axis 0 0 20   XYZ
    dof rx
    limits (-10.0 170.0)
  end
  begin
     id 4 
     name lfoot
     direction 0.0779239 -0.214094 0.9737   
     length 1.97176   
     axis -90 7.62852e-016 20   XYZ
    dof rx rz
    limits (-45.0 90.0)
           (-70.0 20.0)
  end
  begin
     id 5 
     name ltoes
     direction 1.53565e-011 -4.21709e-011 1   
     length 0.993197   
     axis -90 7.62852e-016 20   XYZ
    dof rx
    limits (-90.0 20.0)
  end
  begin
     id 6 
     name rhipjoint
     direction -0.665722 -0.709315 0.231701   
     length 2.56642  
     axis 0 0 0  XYZ 
  end
  begin
     id 7 
     name rfemur
     direction -0.34202 -0.939693 0   
     length 7.32108   
     axis 0 0 -20   XYZ
    dof rx ry rz
    limits (-160.0 20.0)
           (-70.0 70.0)
           (-70.0 60.0)
  end
  begin
     id 8 
     name rtibia
     direction -0.34202 -0.939693 0   
     length 7.81254   
     axis 0 0 -20   XYZ
    dof rx
    limits (-10.0 170.0)
 end
 begin
     id 9 
     name rfoot
     direction -0.0832806 -0.228812 0.969902   
     length 2.08278  
     axis -90 -7.62852e-016 -20   XYZ
    dof rx rz
    limits (-45.0 90.0)
           (-20.0 70.0)
  end
  begin
     id 10 
     name rtoes
     direction -1.53589e-011 -4.22086e-011 1   
     length 1.04609   
     axis -90 -7.62852e-016 -20   XYZ
    dof rx
    limits (-90.0 20.0)
  end
  begin
     id 11 
     name lowerback
     direction -0.00506013 0.988403 -0.151766   
     length 2.01978   
     axis 0 0 0   XYZ
    dof rx ry rz
    limits (-20.0 45.0)
           (-30.0 30.0)
           (-30.0 30.0)
  end
  begin
     id 12 
     name upperback
     direction -0.00836389 0.99968 0.0238859   
     length 2.01276   
     axis 0 0 0   XYZ
    dof rx ry rz
    limits (-20.0 45.0)
           (-30.0 30.0)
           (-30.0 30.0)
  end
  begin
     id 13 
     name thorax
     direction -0.00684136 0.995386 0.0957043   
     length 2.07303   
     axis 0 0 0   XYZ
    dof rx ry rz
    limits (-20.0 45.0)
           (-30.0 30.0)
           (-30.0 30.0)
  end
  begin
     id 14 
     name lowerneck
     direction -0.0161045 0.999661 0.0204485   
     length 1.91243   
     axis 0 0 0   XYZ
    dof rx ry rz
    limits (-20.0 45.0)
           (-30.0 30.0)
           (-30.0 30.0)
  end
  begin
     id 15 
     name upperneck
     direction 0.0553583 0.990946 -0.122319   
     length 1.91574   
     axis 0 0 0   XYZ
    dof rx ry rz
    limits (-20.0 45.0)
           (-30.0 30.0)
           (-30.0 30.0)
  end
  begin
     id 16
     name head
     direction 0.0180273 0.998839 -0.0446756  
     length 1.92693  
     axis 0 0 0   XYZ
    dof rx ry rz
    limits (-20.0 45.0)
           (-30.0 30.0)
           (-30.0 30.0)
  end
  begin
     id 17 
     name lclavicle
     direction 0.945646 0.319323 -0.0615358  
     length 4.0076  
     axis 0 0 0   XYZ
    dof ry rz
    limits (-20.0 10.0)
           (0.0 20.0)
  end
  begin
     id 18 
     name lhumerus
     direction 1 -4.48967e-011 -2.79996e-027   
     length 5.64147   
     axis 180 -30 -90   XYZ
    dof rx ry rz
    limits (-60.0 90.0)
           (-90.0 90.0)
           (-90.0 90.0)
  end
  begin
     id 19
     name lradius
     direction 1 -4.48976e-011 -9.5122e-027   
     length 2.86444   
     axis 180 -30 -90   XYZ
    dof rx
    limits (-10.0 170.0)
  end
  begin
     id 20
     name lwrist
     direction 1 -4.48983e-011 -1.24047e-026   
     length 1.43222   
     axis 9.05591e-015 90 90   XYZ
    dof ry
    limits (-180.0 0.0)
 end
  begin
     id 21 
     name lhand
     direction 1 -4.4892e-011 -2.48094e-026   
     length 0.722123   
     axis 1.58305e-014 90 90   XYZ
    dof rx rz
    limits (-90.0 90.0)
           (-45.0 45.0)
  end
  begin
     id 22 
     name lfingers
     direction 1 -4.48895e-011 -4.96187e-026   
     length 0.582194   
     axis 3.1661e-014 90 90   XYZ
    dof rx
    limits (0.0 90.0)
  end
  begin
     id 23
     name lthumb
     direction 0.707107 -6.34961e-011 0.707107   
     length 0.835918   
     axis -90 45 2.85299e-015   XYZ
    dof rx rz
    limits (-45.0 45.0)
           (-45.0 45.0)
  end
  begin
     id 24 
     name rclavicle
     direction -0.932635 0.324218 -0.15835   
     length 3.65819  
     axis 0 0 0   XYZ 
    dof ry rz
    limits (-10.0 20.0)
           (-20.0 0.0)
  end
  begin
     id 25 
     name rhumerus
     direction -1 -4.48965e-011 -4.02296e-027  
     length 5.44729   
     axis 180 30 90   XYZ
    dof rx ry rz
    limits (-90.0 60.0)
           (-90.0 90.0)
           (-90.0 90.0)
  end
  begin
     id 26 
     name rradius
     direction -1 -4.48957e-011 -8.81087e-027   
     length 3.08821   
     axis 180 30 90   XYZ
    dof rx
    limits (-10.0 170.0)
  end
  begin
     id 27 
     name rwrist
     direction -1 -4.49015e-011 -1.24047e-026   
     length 1.5441   
     axis 9.05591e-015 -90 -90   XYZ
    dof ry
    limits (-180.0 0.0)
  end
  begin
     id 28
     name rhand
     direction -1 -4.4891e-011 -2.48094e-026   
     length 0.821049   
     axis 1.58305e-014 -90 -90   XYZ
    dof rx rz
    limits (-90.0 90.0)
           (-45.0 45.0)
  end
  begin
     id 29
     name rfingers
     direction -1 -4.48985e-011 -4.96187e-026   
     length 0.661951   
     axis 3.1661e-014 -90 -90   XYZ
    dof rx
    limits (0.0 90.0)
  end
  begin
     id 30
     name rthumb
     direction -0.707107 -6.34906e-011 0.707107   
     length 0.950433   
     axis -90 -45 -2.85299e-015   XYZ
    dof rx rz
    limits (-45.0 45.0)
           (-45.0 45.0)
  end
:hierarchy
  begin
    root lhipjoint rhipjoint lowerback
    lhipjoint lfemur
    lfemur ltibia
    ltibia lfoot
    lfoot ltoes
    rhipjoint rfemur
    rfemur rtibia
    rtibia rfoot
    rfoot rtoes
    lowerback upperback
    upperback thorax
    thorax lowerneck lclavicle rclavicle
    lowerneck upperneck
    upperneck head
    lclavicle lhumerus
    lhumerus lradius
    lradius lwrist
    lwrist lhand lthumb
    lhand lfingers
    rclavicle rhumerus
    rhumerus rradius
    rradius rwrist
    rwrist rhand rthumb
    rhand rfingers
  end

#!OML:ASF F:\VICON\USERDATA\INSTALL\rory3\rory3.ASF
:FULLY-SPECIFIED
:DEGREES
2006
root 3.0747 17.7685 0.379585 -35.0333 88.9663 -34.0642
lowerback 0.674935 0.616874 2.69717
upperback -0.746833 0.845639 -1.24431
thorax -1.08661 0.396964 -2.803
lowerneck -3.90797 -5.43337 -4.99481
upperneck 15.4295 -7.71235 6.90412
head 5.7545 -3.48648 2.50805
rclavicle -3.29237e-015 -1.59028e-015
rhumerus 4.44298 10.8613 -83.8279
rradius 60.2987
rwrist -18.4274
rhand -8.98292 -8.23306
rfingers 7.12502
rthumb 16.9629 -37.5124
lclavicle -3.29237e-015 -1.59028e-015
lhumerus 0.831048 -23.5905 84.431
lradius 60.0652
lwrist 62.241
lhand -25.873 22.5439
lfingers 7.12502
lthumb 0.668421 52.5226
rfemur 1.02931 1.29418 19.4315
rtibia 14.1306
rfoot -15.4033 -1.12224
rtoes -5.88122
lfemur 0 0 0
ltibia 0
lfoot 0 0
ltoes 0
2007
root 3.07701 17.7708 0.379966 -29.0081 89.0084 -28.0405
lowerback 0.642993 0.620857 2.56273
upperback -0.748383 0.848663 -1.26619
thorax -1.07156 0.399813 -2.74947
lowerneck -3.89647 -5.41823 -5.00811
upperneck 15.3715 -7.68963 6.90729
head 5.73357 -3.47791 2.51331
rclavicle -1.42876e-015 2.38542e-015
rhumerus 4.47599 10.9485 -83.8299
rradius 60.2997
rwrist -18.4249
rhand -8.69566 -8.28112
rfingers 7.12502
rthumb 17.2394 -37.5364
lclavicle -1.42876e-015 2.38542e-015
lhumerus 0.879974 -23.7363 84.3936
lradius 60.1487
lwrist 62.3045
lhand -25.8021 22.5863
lfingers 7.12502
lthumb 0.736904 52.5648
rfemur 0.950429 1.26195 19.3219
rtibia 14.2762
rfoot -15.4069 -1.27658
rtoes -6.88911
lfemur 0 0 0
ltibia 0
lfoot 0 0
ltoes 0
2008
root 3.07926 17.7754 0.381109 -27.5983 88.953 -26.6399
lowerback 0.608643 0.633058 2.54337
upperback -0.749267 0.864072 -1.24944
thorax -1.05268 0.408015 -2.72108
lowerneck -3.91668 -5.41138 -5.00238
upperneck 15.3489 -7.67412 6.86531
head 5.72723 -3.47347 2.49976
rclavicle -3.72721e-016 -2.78299e-015
rhumerus 4.53659 11.0031 -83.8438
rradius 60.2808
rwrist -18.4478
rhand -8.47659 -8.41162
rfingers 7.12502
rthumb 17.4502 -37.6484
lclavicle -3.72721e-016 -2.78299e-015
lhumerus 0.907727 -23.8529 84.3793
lradius 60.2014
lwrist 62.3113
lhand -25.709 22.6683
lfingers 7.12502
lthumb 0.826783 52.6464
rfemur 0.812657 1.24405 19.3337
rtibia 14.4509
rfoot -15.3849 -1.42989
rtoes -7.82715
lfemur 0 0 0
ltibia 0
lfoot 0 0
ltoes 0
2009
root 3.08152 17.7823 0.382011 -26.7218 88.9138 -25.7621
lowerback 0.599993 0.637676 2.5214
upperback -0.755418 0.869947 -1.23197
thorax -1.05431 0.411082 -2.69076
lowerneck -3.88979 -5.42269 -4.98247
upperneck 15.2736 -7.68057 6.79969
head 5.69634 -3.48274 2.4763
rclavicle -5.09386e-015 -2.38542e-015
rhumerus 4.59635 11.1 -83.8413
rradius 60.2008
rwrist -18.4749
rhand -8.42382 -8.45392
rfingers 7.12502
rthumb 17.501 -37.6862
lclavicle -5.09386e-015 -2.38542e-015
lhumerus 0.945453 -24.0204 84.3411
lradius 60.1889
lwrist 62.4102
lhand -25.8511 22.7209
lfingers 7.12502
lthumb 0.689567 52.6995
rfemur 0.717193 1.41311 19.3383
rtibia 14.566
rfoot -15.4441 -1.4549
rtoes -6.79404
lfemur 0 0 0
ltibia 0
lfoot 0 0
ltoes 0
2010
root 3.08434 17.786 0.380697 -26.0461 88.8898 -25.1276
lowerback 0.541908 0.641607 2.54935
upperback -0.771923 0.874332 -1.23759
thorax -1.0379 0.413139 -2.71168
lowerneck -3.87593 -5.44409 -5.00512
upperneck 15.217 -7.70473 6.78434
head 5.67814 -3.49887 2.4739
rclavicle -8.02593e-015 5.56597e-015
rhumerus 4.65466 11.1185 -83.8909
rradius 60.0509
rwrist -18.4804
rhand -8.38997 -8.44737
rfingers 7.12502
rthumb 17.5336 -37.6767
lclavicle -8.02593e-015 5.56597e-015
lhumerus 1.01342 -24.1583 84.3022
lradius 60.1442
lwrist 62.4368
lhand -25.8135 22.7336
lfingers 7.12502
lthumb 0.725842 52.7121
rfemur 0.668555 1.50595 19.3342
rtibia 14.5543
rfoot -15.4796 -1.45532
rtoes -6.24054
lfemur 0 0 0
ltibia 0
lfoot 0 0
ltoes 0
2011
root 3.08868 17.7827 0.37915 -25.9412 88.8013 -25.0774
lowerback 0.413513 0.661624 2.60272
upperback -0.769072 0.89868 -1.23287
thorax -0.960646 0.426198 -2.73532
lowerneck -3.89573 -5.44233 -4.99897
upperneck 15.164 -7.70219 6.78948
head 5.66483 -3.49824 2.47428
rclavicle 8.48562e-015 0
rhumerus 4.70532 11.1532 -83.9311
rradius 59.9705
rwrist -18.55
rhand -8.27004 -8.4258
rfingers 7.12502
rthumb 17.649 -37.6448
lclavicle 8.48562e-015 0
lhumerus 1.08131 -24.2495 84.2774
lradius 60.1293
lwrist 62.4077
lhand -25.7439 22.7831
lfingers 7.12502
lthumb 0.793078 52.7614
rfemur 0.662611 1.56252 19.3782
rtibia 14.4852
rfoot -15.45 -1.45287
rtoes -6.65614
lfemur 0 0 0
ltibia 0
lfoot 0 0
ltoes 0
2012
root 3.09317 17.7767 0.377428 -26.0813 88.7223 -25.2518
lowerback 0.311497 0.689557 2.65621
upperback -0.783741 0.934228 -1.22026
thorax -0.915502 0.444196 -2.75147
lowerneck -3.85257 -5.44972 -5.00047
upperneck 15.1245 -7.71022 6.77896
head 5.64526 -3.5047 2.47196
rclavicle 4.00054e-015 -9.93923e-015
rhumerus 4.68559 11.1597 -83.9534
rradius 59.9241
rwrist -18.6083
rhand -8.13974 -8.54671
rfingers 7.12502
rthumb 17.7744 -37.7544
lclavicle 4.00054e-015 -9.93923e-015
lhumerus 1.12423 -24.3731 84.2988
lradius 60.071
lwrist 62.3254
lhand -25.6813 22.9046
lfingers 7.12502
lthumb 0.853574 52.8827
rfemur 0.739775 1.53182 19.4202
rtibia 14.3439
rfoot -15.3813 -1.34875
rtoes -7.11168
lfemur 0 0 0
ltibia 0
lfoot 0 0
ltoes 0
2013
root 3.09484 17.7725 0.375711 -24.8852 88.6669 -24.0563
lowerback 0.287152 0.701854 2.66987
upperback -0.790105 0.950278 -1.20613
thorax -0.907317 0.452218 -2.74445
lowerneck -3.82655 -5.44185 -5.03863
upperneck 15.1093 -7.69409 6.76364
head 5.63597 -3.501 2.47526
rclavicle 3.47873e-016 -1.19271e-015
rhumerus 4.69578 11.245 -83.9354
rradius 59.8715
rwrist -18.6973
rhand -8.07593 -8.60271
rfingers 7.12502
rthumb 17.8358 -37.8048
lclavicle 3.47873e-016 -1.19271e-015
lhumerus 1.1475 -24.4664 84.3106
lradius 60.0488
lwrist 62.2335
lhand -25.7697 22.9768
lfingers 7.12502
lthumb 0.768216 52.9552
rfemur 0.826868 1.50439 19.4068
rtibia 14.2001
rfoot -15.2823 -1.2173
rtoes -7.02985
lfemur 0 0 0
ltibia 0
lfoot 0 0
ltoes 0
2014
root 3.09689 17.7729 0.375062 -26.938 88.5958 -26.1049
lowerback 0.270471 0.713399 2.7797
upperback -0.795583 0.966133 -1.19557
thorax -0.900995 0.459373 -2.79533
lowerneck -3.79977 -5.44592 -5.04118
upperneck 15.0994 -7.69889 6.75863
head 5.62848 -3.50451 2.47453
rclavicle 7.45443e-017 7.55382e-015
rhumerus 4.73052 11.2826 -83.9602
rradius 59.8022
rwrist -18.6612
rhand -7.93659 -8.60243
rfingers 7.12502
rthumb 17.9699 -37.7923
lclavicle 7.45443e-017 7.55382e-015
lhumerus 1.18949 -24.6359 84.2784
lradius 60.0102
lwrist 62.1625
lhand -25.8554 22.9488
lfingers 7.12502
lthumb 0.685394 52.9274
rfemur 0.883724 1.54279 19.4896
rtibia 14.1132
rfoot -15.24 -1.25654
rtoes -7.25866
lfemur 0 0 0
ltibia 0
lfoot 0 0
ltoes 0
2015
root 3.09849 17.7724 0.374469 -24.9819 88.5738 -24.1157
lowerback 0.274548 0.726649 2.76489
upperback -0.785332 0.983627 -1.21537
thorax -0.891455 0.468474 -2.80748
lowerneck -3.82395 -5.45318 -5.0265
upperneck 15.1317 -7.71087 6.76036
head 5.64296 -3.50811 2.47106
rclavicle 7.34261e-015 -3.97569e-016
rhumerus 4.81981 11.2993 -83.9875
rradius 59.6569
rwrist -18.6085
rhand -7.66968 -8.66983
rfingers 7.12502
rthumb 18.2267 -37.8359
lclavicle 7.34261e-015 -3.97569e-016
lhumerus 1.25519 -24.87 84.1944
lradius 60.0107
lwrist 62.1584
lhand -25.8995 23.0293
lfingers 7.12502
lthumb 0.642777 53.0081
rfemur 0.916626 1.58194 19.4466
rtibia 14.1209
rfoot -15.2568 -1.20653
rtoes -6.87172
lfemur 0 0 0
ltibia 0
lfoot 0 0
ltoes 0
2016
root 3.1004 17.7707 0.372573 -20.7628 88.6215 -19.8478
lowerback 0.285016 0.732538 2.6921
upperback -0.783504 0.991046 -1.27004
thorax -0.895166 0.472612 -2.823
lowerneck -3.82695 -5.45964 -4.975
upperneck 15.1937 -7.72235 6.73764
head 5.66065 -3.51037 2.4545
rclavicle -5.479e-015 2.3059e-014
rhumerus 4.88396 11.2897 -84.0335
rradius 59.469
rwrist -18.5823
rhand -7.42694 -8.72936
rfingers 7.12502
rthumb 18.4602 -37.8734
lclavicle -5.479e-015 2.3059e-014
lhumerus 1.37075 -25.1137 84.1203
lradius 59.9124
lwrist 62.0819
lhand -25.7459 23.2291
lfingers 7.12502
lthumb 0.791142 53.2073
rfemur 0.955553 1.52912 19.2963
rtibia 14.1579
rfoot -15.3095 -1.05428
rtoes -6.29771
lfemur 0 0 0
ltibia 0
lfoot 0 0
ltoes 0
